<svg class="diagram-root" style="background: #f5f6f6" xmlns="http://www.w3.org/2000/svg" xmlns:xlink="http://www.w3.org/1999/xlink"><style>.diagram-root { font-family: "Helvetica Neue", sans-serif; font-size: 12px; } .t { overflow: visible; } .t-bg { y: 40; fill: #fff;   } .th { fill: #005aa0;   } .tht { fill: #fff; font-size: 14px;  } .tf { fill: #323c46; overflow: visible; } .tf.pk { fill: #005aa0; font-weight: bold; } .tf.fk { font-weight: bold; } .ty { fill: #adb1b5; font-weight: normal; text-anchor: end; } .r { fill: transparent; stroke: #c3c3c3; stroke-width: 1; } .l { stroke: 1; } .i { fill: #c2c7ce; stroke: #c2c7ce; } .i.ix { fill: #afb3b6; stroke: #000; } .fa { fill: transparent; overflow: visible; } .fa .bg.hover { fill: #f7f7f7; } .c { cy: 12; r: 4; stroke: #d2d2dc; fill: #d2d2dc; } .hr { fill: transparent; stroke: #323c46; stroke-opacity: 0.035; stroke-width: 13; } .dc { stroke: #fa5a3c; fill: #fa5a3c; } .x { stroke: white; stroke-width: 1; } .hl .th { fill: #1b9bff; } .hl .tht {  } .fhl .bg { fill: #e7f4ff; } .fhls .bg {  } .r.hl { stroke: #1b9bff; } .dim { opacity: 0.25; }</style><g class="drawing-wrapper" transform="translate(2, 18) scale(1,1)"><g class="rs"><path d="M 182.72 237 m -1, 0 a 1,1 0 1,0 2,0 a 1,1 0 1,0 -2,0 M 182.72 237 m -0.5, 0 a 0.5,0.5 0 1,0 1,0 a 0.5,0.5 0 1,0 -1,0  M182.72 237 L182.72 237 194.72 237 M 182.72 243 m -1, 0 a 1,1 0 1,0 2,0 a 1,1 0 1,0 -2,0 M 182.72 243 m -0.5, 0 a 0.5,0.5 0 1,0 1,0 a 0.5,0.5 0 1,0 -1,0  M182.72 243 L182.72 243 189.72 237 182.72 231 M 182.72 231 m -1, 0 a 1,1 0 1,0 2,0 a 1,1 0 1,0 -2,0 M 182.72 231 m -0.5, 0 a 0.5,0.5 0 1,0 1,0 a 0.5,0.5 0 1,0 -1,0  M194.72 237 Q 210.64 237, 226.55 163.92 T 258.3846153846155 90.84615384615384 M 270.3846153846155 90.84615384615384 m -1, 0 a 1,1 0 1,0 2,0 a 1,1 0 1,0 -2,0 M 270.3846153846155 90.84615384615384 m -0.5, 0 a 0.5,0.5 0 1,0 1,0 a 0.5,0.5 0 1,0 -1,0  M270.3846153846155 90.84615384615384 L270.3846153846155 90.84615384615384 258.3846153846155 90.84615384615384 M264.3846153846155 96.84615384615384 L264.3846153846155 96.84615384615384 264.3846153846155 84.84615384615384" id="h2262592155" class="r"></path><path d="M 182.72 262 m -1, 0 a 1,1 0 1,0 2,0 a 1,1 0 1,0 -2,0 M 182.72 262 m -0.5, 0 a 0.5,0.5 0 1,0 1,0 a 0.5,0.5 0 1,0 -1,0  M182.72 262 L182.72 262 194.72 262 M 182.72 268 m -1, 0 a 1,1 0 1,0 2,0 a 1,1 0 1,0 -2,0 M 182.72 268 m -0.5, 0 a 0.5,0.5 0 1,0 1,0 a 0.5,0.5 0 1,0 -1,0  M182.72 268 L182.72 268 189.72 262 182.72 256 M 182.72 256 m -1, 0 a 1,1 0 1,0 2,0 a 1,1 0 1,0 -2,0 M 182.72 256 m -0.5, 0 a 0.5,0.5 0 1,0 1,0 a 0.5,0.5 0 1,0 -1,0  M194.72 262 Q 211.12 262, 227.51 250.27 T 260.30769230769175 238.53846153846166 M 272.30769230769175 238.53846153846166 m -1, 0 a 1,1 0 1,0 2,0 a 1,1 0 1,0 -2,0 M 272.30769230769175 238.53846153846166 m -0.5, 0 a 0.5,0.5 0 1,0 1,0 a 0.5,0.5 0 1,0 -1,0  M272.30769230769175 238.53846153846166 L272.30769230769175 238.53846153846166 260.30769230769175 238.53846153846166 M266.30769230769175 244.53846153846166 L266.30769230769175 244.53846153846166 266.30769230769175 232.53846153846166" id="h3745066914" class="r"></path><path d="M 182.72 287 m -1, 0 a 1,1 0 1,0 2,0 a 1,1 0 1,0 -2,0 M 182.72 287 m -0.5, 0 a 0.5,0.5 0 1,0 1,0 a 0.5,0.5 0 1,0 -1,0  M182.72 287 L182.72 287 194.72 287 M 182.72 293 m -1, 0 a 1,1 0 1,0 2,0 a 1,1 0 1,0 -2,0 M 182.72 293 m -0.5, 0 a 0.5,0.5 0 1,0 1,0 a 0.5,0.5 0 1,0 -1,0  M182.72 293 L182.72 293 189.72 287 182.72 281 M 182.72 281 m -1, 0 a 1,1 0 1,0 2,0 a 1,1 0 1,0 -2,0 M 182.72 281 m -0.5, 0 a 0.5,0.5 0 1,0 1,0 a 0.5,0.5 0 1,0 -1,0  M194.72 287 Q 211.12 287, 227.51 262.77 T 260.30769230769175 238.53846153846166 M 272.30769230769175 238.53846153846166 m -1, 0 a 1,1 0 1,0 2,0 a 1,1 0 1,0 -2,0 M 272.30769230769175 238.53846153846166 m -0.5, 0 a 0.5,0.5 0 1,0 1,0 a 0.5,0.5 0 1,0 -1,0  M272.30769230769175 238.53846153846166 L272.30769230769175 238.53846153846166 260.30769230769175 238.53846153846166 M266.30769230769175 244.53846153846166 L266.30769230769175 244.53846153846166 266.30769230769175 232.53846153846166" id="h3758989150" class="r"></path></g><g class="hrs"></g><g class="ts"><svg width="152.72" height="275" x="30" y="30" id="h658760698" class="t"><rect height="40" width="152.72" class="th"></rect><text x="13" y="25" class="tht">tickets</text><rect height="235" width="152.72" class="t-bg"></rect><text x="13" y="61" class="tf pk">id<tspan x="139.72" class="ty">serial</tspan></text><path d="M7,14A2,2 0 0,1 5,12A2,2 0 0,1 7,10A2,2 0 0,1 9,12A2,2 0 0,1 7,14M12.65,10C11.83,7.67 9.61,6 7, 6A6, 6 0 0, 0 1, 12A6, 6 0 0, 0 7, 18C9.61, 18 11.83, 16.33 12.65, 14H17V18H21V14H23V10H12.65Z" class="i pk" transform="translate(91.04421875, 48) scale(0.65)"></path><text x="13" y="86" class="tf">first_name<tspan x="139.72" class="ty">text</tspan></text><text x="13" y="111" class="tf">last_name<tspan x="139.72" class="ty">text</tspan></text><text x="13" y="136" class="tf">seat<tspan x="139.72" class="ty">text</tspan></text><text x="13" y="161" class="tf">departure<tspan x="139.72" class="ty">timestamp</tspan></text><text x="13" y="186" class="tf">arrival<tspan x="139.72" class="ty">timestamp</tspan></text><text x="13" y="211" class="tf fk">airline<tspan x="139.72" class="ty">int</tspan></text><text x="13" y="236" class="tf fk">from<tspan x="139.72" class="ty">int</tspan></text><text x="13" y="261" class="tf fk">to<tspan x="139.72" class="ty">int</tspan></text></svg><svg width="104.02" height="100" x="270.3846153846155" y="33.84615384615384" id="h1701999969" class="t"><rect height="40" width="104.02" class="th"></rect><text x="13" y="25" class="tht">airlines</text><rect height="60" width="104.02" class="t-bg"></rect><text x="13" y="61" class="tf pk">id<tspan x="91.02" class="ty">serial</tspan></text><path d="M7,14A2,2 0 0,1 5,12A2,2 0 0,1 7,10A2,2 0 0,1 9,12A2,2 0 0,1 7,14M12.65,10C11.83,7.67 9.61,6 7, 6A6, 6 0 0, 0 1, 12A6, 6 0 0, 0 7, 18C9.61, 18 11.83, 16.33 12.65, 14H17V18H21V14H23V10H12.65Z" class="i pk" transform="translate(42.344218749999996, 48) scale(0.65)"></path><text x="13" y="86" class="tf">name<tspan x="91.02" class="ty">text</tspan></text></svg><svg width="104.69" height="125" x="272.30769230769175" y="181.53846153846166" id="h2994671288" class="t"><rect height="40" width="104.69" class="th"></rect><text x="13" y="25" class="tht">locations</text><rect height="85" width="104.69" class="t-bg"></rect><text x="13" y="61" class="tf pk">id<tspan x="91.69" class="ty">serial</tspan></text><path d="M7,14A2,2 0 0,1 5,12A2,2 0 0,1 7,10A2,2 0 0,1 9,12A2,2 0 0,1 7,14M12.65,10C11.83,7.67 9.61,6 7, 6A6, 6 0 0, 0 1, 12A6, 6 0 0, 0 7, 18C9.61, 18 11.83, 16.33 12.65, 14H17V18H21V14H23V10H12.65Z" class="i pk" transform="translate(43.01421875, 48) scale(0.65)"></path><text x="13" y="86" class="tf">city<tspan x="91.69" class="ty">text</tspan></text><text x="13" y="111" class="tf">country<tspan x="91.69" class="ty">text</tspan></text></svg></g></g><text class="qdbd-link" x="10" y="20">www.quickdatabasediagrams.com</text></svg>