<svg class="diagram-root" style="background: #f5f6f6" xmlns="http://www.w3.org/2000/svg" xmlns:xlink="http://www.w3.org/1999/xlink"><style>.diagram-root { font-family: "Helvetica Neue", sans-serif; font-size: 12px; } .t { overflow: visible; } .t-bg { y: 40; fill: #fff;   } .th { fill: #005aa0;   } .tht { fill: #fff; font-size: 14px;  } .tf { fill: #323c46; overflow: visible; } .tf.pk { fill: #005aa0; font-weight: bold; } .tf.fk { font-weight: bold; } .ty { fill: #adb1b5; font-weight: normal; text-anchor: end; } .r { fill: transparent; stroke: #c3c3c3; stroke-width: 1; } .l { stroke: 1; } .i { fill: #c2c7ce; stroke: #c2c7ce; } .i.ix { fill: #afb3b6; stroke: #000; } .fa { fill: transparent; overflow: visible; } .fa .bg.hover { fill: #f7f7f7; } .c { cy: 12; r: 4; stroke: #d2d2dc; fill: #d2d2dc; } .hr { fill: transparent; stroke: #323c46; stroke-opacity: 0.035; stroke-width: 13; } .dc { stroke: #fa5a3c; fill: #fa5a3c; } .x { stroke: white; stroke-width: 1; } .hl .th { fill: #1b9bff; } .hl .tht {  } .fhl .bg { fill: #e7f4ff; } .fhls .bg {  } .r.hl { stroke: #1b9bff; } .dim { opacity: 0.25; }</style><g class="drawing-wrapper" transform="translate(28.92307692307692, 10.772307692307688) scale(1,1)"><g class="rs"><path d="M 253.46 126.47999999999999 m -1, 0 a 1,1 0 1,0 2,0 a 1,1 0 1,0 -2,0 M 253.46 126.47999999999999 m -0.5, 0 a 0.5,0.5 0 1,0 1,0 a 0.5,0.5 0 1,0 -1,0  M253.46 126.47999999999999 L253.46 126.47999999999999 241.46 126.47999999999999 M 253.46 132.48 m -1, 0 a 1,1 0 1,0 2,0 a 1,1 0 1,0 -2,0 M 253.46 132.48 m -0.5, 0 a 0.5,0.5 0 1,0 1,0 a 0.5,0.5 0 1,0 -1,0  M253.46 132.48 L253.46 132.48 246.46 126.47999999999999 253.46 120.47999999999999 M 253.46 120.47999999999999 m -1, 0 a 1,1 0 1,0 2,0 a 1,1 0 1,0 -2,0 M 253.46 120.47999999999999 m -0.5, 0 a 0.5,0.5 0 1,0 1,0 a 0.5,0.5 0 1,0 -1,0  M241.46 126.47999999999999 Q 226.39 126.47999999999999, 211.32 105.97 T 181.17 85.46000000000001 M 169.17 85.46000000000001 m -1, 0 a 1,1 0 1,0 2,0 a 1,1 0 1,0 -2,0 M 169.17 85.46000000000001 m -0.5, 0 a 0.5,0.5 0 1,0 1,0 a 0.5,0.5 0 1,0 -1,0  M169.17 85.46000000000001 L169.17 85.46000000000001 181.17 85.46000000000001 M175.17 91.46000000000001 L175.17 91.46000000000001 175.17 79.46000000000001" id="h2397264635" class="r"></path><path d="M 431.98 151.48 m -1, 0 a 1,1 0 1,0 2,0 a 1,1 0 1,0 -2,0 M 431.98 151.48 m -0.5, 0 a 0.5,0.5 0 1,0 1,0 a 0.5,0.5 0 1,0 -1,0  M431.98 151.48 L431.98 151.48 443.98 151.48 M 431.98 157.48 m -1, 0 a 1,1 0 1,0 2,0 a 1,1 0 1,0 -2,0 M 431.98 157.48 m -0.5, 0 a 0.5,0.5 0 1,0 1,0 a 0.5,0.5 0 1,0 -1,0  M431.98 157.48 L431.98 157.48 438.98 151.48 431.98 145.48 M 431.98 145.48 m -1, 0 a 1,1 0 1,0 2,0 a 1,1 0 1,0 -2,0 M 431.98 145.48 m -0.5, 0 a 0.5,0.5 0 1,0 1,0 a 0.5,0.5 0 1,0 -1,0  M443.98 151.48 Q 460.66 151.48, 477.34 113.85 T 510.69000000000005 76.23 M 522.69 76.23 m -1, 0 a 1,1 0 1,0 2,0 a 1,1 0 1,0 -2,0 M 522.69 76.23 m -0.5, 0 a 0.5,0.5 0 1,0 1,0 a 0.5,0.5 0 1,0 -1,0  M522.69 76.23 L522.69 76.23 510.69000000000005 76.23 M516.69 82.23 L516.69 82.23 516.69 70.23" id="h3952413024" class="r"></path><path d="M 431.98 176.48 m -1, 0 a 1,1 0 1,0 2,0 a 1,1 0 1,0 -2,0 M 431.98 176.48 m -0.5, 0 a 0.5,0.5 0 1,0 1,0 a 0.5,0.5 0 1,0 -1,0  M431.98 176.48 L431.98 176.48 443.98 176.48 M 431.98 182.48 m -1, 0 a 1,1 0 1,0 2,0 a 1,1 0 1,0 -2,0 M 431.98 182.48 m -0.5, 0 a 0.5,0.5 0 1,0 1,0 a 0.5,0.5 0 1,0 -1,0  M431.98 182.48 L431.98 182.48 438.98 176.48 431.98 170.48 M 431.98 170.48 m -1, 0 a 1,1 0 1,0 2,0 a 1,1 0 1,0 -2,0 M 431.98 170.48 m -0.5, 0 a 0.5,0.5 0 1,0 1,0 a 0.5,0.5 0 1,0 -1,0  M443.98 176.48 Q 460.86 176.48, 477.74 191.85 T 511.49 207.21 M 523.49 207.21 m -1, 0 a 1,1 0 1,0 2,0 a 1,1 0 1,0 -2,0 M 523.49 207.21 m -0.5, 0 a 0.5,0.5 0 1,0 1,0 a 0.5,0.5 0 1,0 -1,0  M523.49 207.21 L523.49 207.21 511.49 207.21 M517.49 213.21 L517.49 213.21 517.49 201.21" id="h1317754187" class="r"></path></g><g class="hrs"></g><g class="ts"><svg width="176.09" height="175" x="-6.92" y="28.46" id="h1397465888" class="t"><rect height="40" width="176.09" class="th"></rect><text x="13" y="25" class="tht">songs</text><rect height="135" width="176.09" class="t-bg"></rect><text x="13" y="61" class="tf pk">id<tspan x="163.09" class="ty">serial</tspan></text><path d="M7,14A2,2 0 0,1 5,12A2,2 0 0,1 7,10A2,2 0 0,1 9,12A2,2 0 0,1 7,14M12.65,10C11.83,7.67 9.61,6 7, 6A6, 6 0 0, 0 1, 12A6, 6 0 0, 0 7, 18C9.61, 18 11.83, 16.33 12.65, 14H17V18H21V14H23V10H12.65Z" class="i pk" transform="translate(114.41421875, 48) scale(0.65)"></path><text x="13" y="86" class="tf">title<tspan x="163.09" class="ty">text</tspan></text><text x="13" y="111" class="tf">duration_in_seconds<tspan x="163.09" class="ty">text</tspan></text><text x="13" y="136" class="tf">release_date<tspan x="163.09" class="ty">date</tspan></text><text x="13" y="161" class="tf">album<tspan x="163.09" class="ty">text</tspan></text></svg><svg width="104.02" height="100" x="522.69" y="19.23" id="h3332549476" class="t"><rect height="40" width="104.02" class="th"></rect><text x="13" y="25" class="tht">artists</text><rect height="60" width="104.02" class="t-bg"></rect><text x="13" y="61" class="tf pk">id<tspan x="91.02" class="ty">serial</tspan></text><path d="M7,14A2,2 0 0,1 5,12A2,2 0 0,1 7,10A2,2 0 0,1 9,12A2,2 0 0,1 7,14M12.65,10C11.83,7.67 9.61,6 7, 6A6, 6 0 0, 0 1, 12A6, 6 0 0, 0 7, 18C9.61, 18 11.83, 16.33 12.65, 14H17V18H21V14H23V10H12.65Z" class="i pk" transform="translate(42.344218749999996, 48) scale(0.65)"></path><text x="13" y="86" class="tf">name<tspan x="91.02" class="ty">text</tspan></text></svg><svg width="104.02" height="100" x="523.49" y="150.21" id="h568809404" class="t"><rect height="40" width="104.02" class="th"></rect><text x="13" y="25" class="tht">producers</text><rect height="60" width="104.02" class="t-bg"></rect><text x="13" y="61" class="tf pk">id<tspan x="91.02" class="ty">serial</tspan></text><path d="M7,14A2,2 0 0,1 5,12A2,2 0 0,1 7,10A2,2 0 0,1 9,12A2,2 0 0,1 7,14M12.65,10C11.83,7.67 9.61,6 7, 6A6, 6 0 0, 0 1, 12A6, 6 0 0, 0 7, 18C9.61, 18 11.83, 16.33 12.65, 14H17V18H21V14H23V10H12.65Z" class="i pk" transform="translate(42.344218749999996, 48) scale(0.65)"></path><text x="13" y="86" class="tf">name<tspan x="91.02" class="ty">text</tspan></text></svg><svg width="178.52" height="150" x="253.46" y="44.48" id="h553373733" class="t"><rect height="40" width="178.52" class="th"></rect><text x="13" y="25" class="tht">songs_artists_producers</text><rect height="110" width="178.52" class="t-bg"></rect><text x="13" y="61" class="tf pk">id<tspan x="165.52" class="ty">serial</tspan></text><path d="M7,14A2,2 0 0,1 5,12A2,2 0 0,1 7,10A2,2 0 0,1 9,12A2,2 0 0,1 7,14M12.65,10C11.83,7.67 9.61,6 7, 6A6, 6 0 0, 0 1, 12A6, 6 0 0, 0 7, 18C9.61, 18 11.83, 16.33 12.65, 14H17V18H21V14H23V10H12.65Z" class="i pk" transform="translate(116.84421875000001, 48) scale(0.65)"></path><text x="13" y="86" class="tf fk">song_id<tspan x="165.52" class="ty">int</tspan></text><text x="13" y="111" class="tf fk">artist_id<tspan x="165.52" class="ty">int</tspan></text><text x="13" y="136" class="tf fk">producer_id<tspan x="165.52" class="ty">int</tspan></text></svg></g></g><text class="qdbd-link" x="10" y="20">www.quickdatabasediagrams.com</text></svg>