<svg class="diagram-root" style="background: #f5f6f6" xmlns="http://www.w3.org/2000/svg" xmlns:xlink="http://www.w3.org/1999/xlink"><style>.diagram-root { font-family: "Helvetica Neue", sans-serif; font-size: 12px; } .t { overflow: visible; } .t-bg { y: 40; fill: #fff;   } .th { fill: #005aa0;   } .tht { fill: #fff; font-size: 14px;  } .tf { fill: #323c46; overflow: visible; } .tf.pk { fill: #005aa0; font-weight: bold; } .tf.fk { font-weight: bold; } .ty { fill: #adb1b5; font-weight: normal; text-anchor: end; } .r { fill: transparent; stroke: #c3c3c3; stroke-width: 1; } .l { stroke: 1; } .i { fill: #c2c7ce; stroke: #c2c7ce; } .i.ix { fill: #afb3b6; stroke: #000; } .fa { fill: transparent; overflow: visible; } .fa .bg.hover { fill: #f7f7f7; } .c { cy: 12; r: 4; stroke: #d2d2dc; fill: #d2d2dc; } .hr { fill: transparent; stroke: #323c46; stroke-opacity: 0.035; stroke-width: 13; } .dc { stroke: #fa5a3c; fill: #fa5a3c; } .x { stroke: white; stroke-width: 1; } .hl .th { fill: #1b9bff; } .hl .tht {  } .fhl .bg { fill: #e7f4ff; } .fhls .bg {  } .r.hl { stroke: #1b9bff; } .dim { opacity: 0.25; }</style><g class="drawing-wrapper" transform="translate(2, 18) scale(1,1)"><g class="rs"><path d="M 309 137 m -1, 0 a 1,1 0 1,0 2,0 a 1,1 0 1,0 -2,0 M 309 137 m -0.5, 0 a 0.5,0.5 0 1,0 1,0 a 0.5,0.5 0 1,0 -1,0  M309 137 L309 137 297 137 M 309 143 m -1, 0 a 1,1 0 1,0 2,0 a 1,1 0 1,0 -2,0 M 309 143 m -0.5, 0 a 0.5,0.5 0 1,0 1,0 a 0.5,0.5 0 1,0 -1,0  M309 143 L309 143 302 137 309 131 M 309 131 m -1, 0 a 1,1 0 1,0 2,0 a 1,1 0 1,0 -2,0 M 309 131 m -0.5, 0 a 0.5,0.5 0 1,0 1,0 a 0.5,0.5 0 1,0 -1,0  M297 137 Q 281.61 137, 266.22 112 T 235.43 87 M 223.43 87 m -1, 0 a 1,1 0 1,0 2,0 a 1,1 0 1,0 -2,0 M 223.43 87 m -0.5, 0 a 0.5,0.5 0 1,0 1,0 a 0.5,0.5 0 1,0 -1,0  M223.43 87 L223.43 87 235.43 87 M229.43 93 L229.43 93 229.43 81" id="h1410169350" class="r"></path></g><g class="hrs"></g><g class="ts"><svg width="193.43" height="175" x="30" y="30" id="h3417360113" class="t"><rect height="40" width="193.43" class="th"></rect><text x="13" y="25" class="tht">planets</text><rect height="135" width="193.43" class="t-bg"></rect><text x="13" y="61" class="tf pk">id<tspan x="180.43" class="ty">serial</tspan></text><path d="M7,14A2,2 0 0,1 5,12A2,2 0 0,1 7,10A2,2 0 0,1 9,12A2,2 0 0,1 7,14M12.65,10C11.83,7.67 9.61,6 7, 6A6, 6 0 0, 0 1, 12A6, 6 0 0, 0 7, 18C9.61, 18 11.83, 16.33 12.65, 14H17V18H21V14H23V10H12.65Z" class="i pk" transform="translate(131.75421875, 48) scale(0.65)"></path><text x="13" y="86" class="tf">name<tspan x="180.43" class="ty">text</tspan></text><text x="13" y="111" class="tf">orbital_period_in_years<tspan x="180.43" class="ty">float</tspan></text><text x="13" y="136" class="tf">orbits_around<tspan x="180.43" class="ty">text</tspan></text><text x="13" y="161" class="tf">galaxy<tspan x="180.43" class="ty">text</tspan></text></svg><svg width="107.38" height="125" x="309" y="30" id="h4291935217" class="t"><rect height="40" width="107.38" class="th"></rect><text x="13" y="25" class="tht">moons</text><rect height="85" width="107.38" class="t-bg"></rect><text x="13" y="61" class="tf pk">id<tspan x="94.38" class="ty">serial</tspan></text><path d="M7,14A2,2 0 0,1 5,12A2,2 0 0,1 7,10A2,2 0 0,1 9,12A2,2 0 0,1 7,14M12.65,10C11.83,7.67 9.61,6 7, 6A6, 6 0 0, 0 1, 12A6, 6 0 0, 0 7, 18C9.61, 18 11.83, 16.33 12.65, 14H17V18H21V14H23V10H12.65Z" class="i pk" transform="translate(45.704218749999995, 48) scale(0.65)"></path><text x="13" y="86" class="tf">name<tspan x="94.38" class="ty">text</tspan></text><text x="13" y="111" class="tf fk">planet_id<tspan x="94.38" class="ty">int</tspan></text></svg></g></g><text class="qdbd-link" x="10" y="20">www.quickdatabasediagrams.com</text></svg>