<svg class="diagram-root" style="background: #f5f6f6" xmlns="http://www.w3.org/2000/svg" xmlns:xlink="http://www.w3.org/1999/xlink"><style>.diagram-root { font-family: "Helvetica Neue", sans-serif; font-size: 12px; } .t { overflow: visible; } .t-bg { y: 40; fill: #fff;   } .th { fill: #005aa0;   } .tht { fill: #fff; font-size: 14px;  } .tf { fill: #323c46; overflow: visible; } .tf.pk { fill: #005aa0; font-weight: bold; } .tf.fk { font-weight: bold; } .ty { fill: #adb1b5; font-weight: normal; text-anchor: end; } .r { fill: transparent; stroke: #c3c3c3; stroke-width: 1; } .l { stroke: 1; } .i { fill: #c2c7ce; stroke: #c2c7ce; } .i.ix { fill: #afb3b6; stroke: #000; } .fa { fill: transparent; overflow: visible; } .fa .bg.hover { fill: #f7f7f7; } .c { cy: 12; r: 4; stroke: #d2d2dc; fill: #d2d2dc; } .hr { fill: transparent; stroke: #323c46; stroke-opacity: 0.035; stroke-width: 13; } .dc { stroke: #fa5a3c; fill: #fa5a3c; } .x { stroke: white; stroke-width: 1; } .hl .th { fill: #1b9bff; } .hl .tht {  } .fhl .bg { fill: #e7f4ff; } .fhls .bg {  } .r.hl { stroke: #1b9bff; } .dim { opacity: 0.25; }</style><g class="drawing-wrapper" transform="translate(327, 161.1111111111112) scale(1,1)"><g class="rs"><path d="M 203.89 100.88999999999999 m -1, 0 a 1,1 0 1,0 2,0 a 1,1 0 1,0 -2,0 M 203.89 100.88999999999999 m -0.5, 0 a 0.5,0.5 0 1,0 1,0 a 0.5,0.5 0 1,0 -1,0  M203.89 100.88999999999999 L203.89 100.88999999999999 191.89 100.88999999999999 M 203.89 106.88999999999999 m -1, 0 a 1,1 0 1,0 2,0 a 1,1 0 1,0 -2,0 M 203.89 106.88999999999999 m -0.5, 0 a 0.5,0.5 0 1,0 1,0 a 0.5,0.5 0 1,0 -1,0  M203.89 106.88999999999999 L203.89 106.88999999999999 196.89 100.88999999999999 203.89 94.88999999999999 M 203.89 94.88999999999999 m -1, 0 a 1,1 0 1,0 2,0 a 1,1 0 1,0 -2,0 M 203.89 94.88999999999999 m -0.5, 0 a 0.5,0.5 0 1,0 1,0 a 0.5,0.5 0 1,0 -1,0  M191.89 100.88999999999999 Q 105.76 100.88999999999999, 19.63 27.94 T -152.62 -45 M -164.62 -45 m -1, 0 a 1,1 0 1,0 2,0 a 1,1 0 1,0 -2,0 M -164.62 -45 m -0.5, 0 a 0.5,0.5 0 1,0 1,0 a 0.5,0.5 0 1,0 -1,0  M-164.62 -45 L-164.62 -45 -152.62 -45 M-158.62 -39 L-158.62 -39 -158.62 -51" id="h1043936442" class="r"></path><path d="M -38.89 148.67000000000002 m -1, 0 a 1,1 0 1,0 2,0 a 1,1 0 1,0 -2,0 M -38.89 148.67000000000002 m -0.5, 0 a 0.5,0.5 0 1,0 1,0 a 0.5,0.5 0 1,0 -1,0  M-38.89 148.67000000000002 L-38.89 148.67000000000002 -50.89 148.67000000000002 M -38.89 154.67000000000002 m -1, 0 a 1,1 0 1,0 2,0 a 1,1 0 1,0 -2,0 M -38.89 154.67000000000002 m -0.5, 0 a 0.5,0.5 0 1,0 1,0 a 0.5,0.5 0 1,0 -1,0  M-38.89 154.67000000000002 L-38.89 154.67000000000002 -45.89 148.67000000000002 -38.89 142.67000000000002 M -38.89 142.67000000000002 m -1, 0 a 1,1 0 1,0 2,0 a 1,1 0 1,0 -2,0 M -38.89 142.67000000000002 m -0.5, 0 a 0.5,0.5 0 1,0 1,0 a 0.5,0.5 0 1,0 -1,0  M-50.89 148.67000000000002 Q -76.32 148.67000000000002, -101.75 51.84 T -152.62 -45 M -164.62 -45 m -1, 0 a 1,1 0 1,0 2,0 a 1,1 0 1,0 -2,0 M -164.62 -45 m -0.5, 0 a 0.5,0.5 0 1,0 1,0 a 0.5,0.5 0 1,0 -1,0  M-164.62 -45 L-164.62 -45 -152.62 -45 M-158.62 -39 L-158.62 -39 -158.62 -51" id="h295844073" class="r"></path><path d="M -38.89 173.67000000000002 m -1, 0 a 1,1 0 1,0 2,0 a 1,1 0 1,0 -2,0 M -38.89 173.67000000000002 m -0.5, 0 a 0.5,0.5 0 1,0 1,0 a 0.5,0.5 0 1,0 -1,0  M-38.89 173.67000000000002 L-38.89 173.67000000000002 -50.89 173.67000000000002 M -38.89 179.67000000000002 m -1, 0 a 1,1 0 1,0 2,0 a 1,1 0 1,0 -2,0 M -38.89 179.67000000000002 m -0.5, 0 a 0.5,0.5 0 1,0 1,0 a 0.5,0.5 0 1,0 -1,0  M-38.89 179.67000000000002 L-38.89 179.67000000000002 -45.89 173.67000000000002 -38.89 167.67000000000002 M -38.89 167.67000000000002 m -1, 0 a 1,1 0 1,0 2,0 a 1,1 0 1,0 -2,0 M -38.89 167.67000000000002 m -0.5, 0 a 0.5,0.5 0 1,0 1,0 a 0.5,0.5 0 1,0 -1,0  M-50.89 173.67000000000002 Q -76.32 173.67000000000002, -101.75 64.34 T -152.62 -45 M -164.62 -45 m -1, 0 a 1,1 0 1,0 2,0 a 1,1 0 1,0 -2,0 M -164.62 -45 m -0.5, 0 a 0.5,0.5 0 1,0 1,0 a 0.5,0.5 0 1,0 -1,0  M-164.62 -45 L-164.62 -45 -152.62 -45 M-158.62 -39 L-158.62 -39 -158.62 -51" id="h2197867371" class="r"></path><path d="M -38.89 198.67000000000002 m -1, 0 a 1,1 0 1,0 2,0 a 1,1 0 1,0 -2,0 M -38.89 198.67000000000002 m -0.5, 0 a 0.5,0.5 0 1,0 1,0 a 0.5,0.5 0 1,0 -1,0  M-38.89 198.67000000000002 L-38.89 198.67000000000002 -50.89 198.67000000000002 M -38.89 204.67000000000002 m -1, 0 a 1,1 0 1,0 2,0 a 1,1 0 1,0 -2,0 M -38.89 204.67000000000002 m -0.5, 0 a 0.5,0.5 0 1,0 1,0 a 0.5,0.5 0 1,0 -1,0  M-38.89 204.67000000000002 L-38.89 204.67000000000002 -45.89 198.67000000000002 -38.89 192.67000000000002 M -38.89 192.67000000000002 m -1, 0 a 1,1 0 1,0 2,0 a 1,1 0 1,0 -2,0 M -38.89 192.67000000000002 m -0.5, 0 a 0.5,0.5 0 1,0 1,0 a 0.5,0.5 0 1,0 -1,0  M-50.89 198.67000000000002 Q -74.57 198.67000000000002, -98.25 177.34 T -145.62 156 M -157.62 156 m -1, 0 a 1,1 0 1,0 2,0 a 1,1 0 1,0 -2,0 M -157.62 156 m -0.5, 0 a 0.5,0.5 0 1,0 1,0 a 0.5,0.5 0 1,0 -1,0  M-157.62 156 L-157.62 156 -145.62 156 M-151.62 162 L-151.62 162 -151.62 150" id="h3095877963" class="r"></path><path d="M 110.48 298.67 m -1, 0 a 1,1 0 1,0 2,0 a 1,1 0 1,0 -2,0 M 110.48 298.67 m -0.5, 0 a 0.5,0.5 0 1,0 1,0 a 0.5,0.5 0 1,0 -1,0  M110.48 298.67 L110.48 298.67 122.48 298.67 M 110.48 304.67 m -1, 0 a 1,1 0 1,0 2,0 a 1,1 0 1,0 -2,0 M 110.48 304.67 m -0.5, 0 a 0.5,0.5 0 1,0 1,0 a 0.5,0.5 0 1,0 -1,0  M110.48 304.67 L110.48 304.67 117.48 298.67 110.48 292.67 M 110.48 292.67 m -1, 0 a 1,1 0 1,0 2,0 a 1,1 0 1,0 -2,0 M 110.48 292.67 m -0.5, 0 a 0.5,0.5 0 1,0 1,0 a 0.5,0.5 0 1,0 -1,0  M122.48 298.67 Q 144.53 298.67, 166.58 336.67 T 210.67 374.67 M 222.67 374.67 m -1, 0 a 1,1 0 1,0 2,0 a 1,1 0 1,0 -2,0 M 222.67 374.67 m -0.5, 0 a 0.5,0.5 0 1,0 1,0 a 0.5,0.5 0 1,0 -1,0  M222.67 374.67 L222.67 374.67 210.67 374.67 M216.67 380.67 L216.67 380.67 216.67 368.67" id="h3122567200" class="r"></path><path d="M 223.56 228.67 m -1, 0 a 1,1 0 1,0 2,0 a 1,1 0 1,0 -2,0 M 223.56 228.67 m -0.5, 0 a 0.5,0.5 0 1,0 1,0 a 0.5,0.5 0 1,0 -1,0  M223.56 228.67 L223.56 228.67 211.56 228.67 M 223.56 234.67 m -1, 0 a 1,1 0 1,0 2,0 a 1,1 0 1,0 -2,0 M 223.56 234.67 m -0.5, 0 a 0.5,0.5 0 1,0 1,0 a 0.5,0.5 0 1,0 -1,0  M223.56 234.67 L223.56 234.67 216.56 228.67 223.56 222.67 M 223.56 222.67 m -1, 0 a 1,1 0 1,0 2,0 a 1,1 0 1,0 -2,0 M 223.56 222.67 m -0.5, 0 a 0.5,0.5 0 1,0 1,0 a 0.5,0.5 0 1,0 -1,0  M211.56 228.67 C 130.08799999999997 228.67, 141.89 -74.11000000000001, 191.89 -74.11000000000001 M 203.89 -74.11000000000001 m -1, 0 a 1,1 0 1,0 2,0 a 1,1 0 1,0 -2,0 M 203.89 -74.11000000000001 m -0.5, 0 a 0.5,0.5 0 1,0 1,0 a 0.5,0.5 0 1,0 -1,0  M203.89 -74.11000000000001 L203.89 -74.11000000000001 191.89 -74.11000000000001 M197.89 -68.11000000000001 L197.89 -68.11000000000001 197.89 -80.11000000000001" id="h2561147591" class="r"></path><path d="M 223.56 253.67 m -1, 0 a 1,1 0 1,0 2,0 a 1,1 0 1,0 -2,0 M 223.56 253.67 m -0.5, 0 a 0.5,0.5 0 1,0 1,0 a 0.5,0.5 0 1,0 -1,0  M223.56 253.67 L223.56 253.67 211.56 253.67 M 223.56 259.66999999999996 m -1, 0 a 1,1 0 1,0 2,0 a 1,1 0 1,0 -2,0 M 223.56 259.66999999999996 m -0.5, 0 a 0.5,0.5 0 1,0 1,0 a 0.5,0.5 0 1,0 -1,0  M223.56 259.66999999999996 L223.56 259.66999999999996 216.56 253.67 223.56 247.67 M 223.56 247.67 m -1, 0 a 1,1 0 1,0 2,0 a 1,1 0 1,0 -2,0 M 223.56 247.67 m -0.5, 0 a 0.5,0.5 0 1,0 1,0 a 0.5,0.5 0 1,0 -1,0  M211.56 253.67 Q 189.29 253.67, 167.02 188.67 T 122.48 123.67 M 110.48 123.67 m -1, 0 a 1,1 0 1,0 2,0 a 1,1 0 1,0 -2,0 M 110.48 123.67 m -0.5, 0 a 0.5,0.5 0 1,0 1,0 a 0.5,0.5 0 1,0 -1,0  M110.48 123.67 L110.48 123.67 122.48 123.67 M116.48 129.67000000000002 L116.48 129.67000000000002 116.48 117.67" id="h1739542074" class="r"></path><path d="M -163.3 362 m -1, 0 a 1,1 0 1,0 2,0 a 1,1 0 1,0 -2,0 M -163.3 362 m -0.5, 0 a 0.5,0.5 0 1,0 1,0 a 0.5,0.5 0 1,0 -1,0  M-163.3 362 L-163.3 362 -151.3 362 M -163.3 368 m -1, 0 a 1,1 0 1,0 2,0 a 1,1 0 1,0 -2,0 M -163.3 368 m -0.5, 0 a 0.5,0.5 0 1,0 1,0 a 0.5,0.5 0 1,0 -1,0  M-163.3 368 L-163.3 368 -156.3 362 -163.3 356 M -163.3 356 m -1, 0 a 1,1 0 1,0 2,0 a 1,1 0 1,0 -2,0 M -163.3 356 m -0.5, 0 a 0.5,0.5 0 1,0 1,0 a 0.5,0.5 0 1,0 -1,0  M-151.3 362 C -101.30000000000001 362, -100.50800000000001 -45, -152.62 -45 M -164.62 -45 m -1, 0 a 1,1 0 1,0 2,0 a 1,1 0 1,0 -2,0 M -164.62 -45 m -0.5, 0 a 0.5,0.5 0 1,0 1,0 a 0.5,0.5 0 1,0 -1,0  M-164.62 -45 L-164.62 -45 -152.62 -45 M-158.62 -39 L-158.62 -39 -158.62 -51" id="h3857304036" class="r"></path><path d="M -163.3 387 m -1, 0 a 1,1 0 1,0 2,0 a 1,1 0 1,0 -2,0 M -163.3 387 m -0.5, 0 a 0.5,0.5 0 1,0 1,0 a 0.5,0.5 0 1,0 -1,0  M-163.3 387 L-163.3 387 -151.3 387 M -163.3 393 m -1, 0 a 1,1 0 1,0 2,0 a 1,1 0 1,0 -2,0 M -163.3 393 m -0.5, 0 a 0.5,0.5 0 1,0 1,0 a 0.5,0.5 0 1,0 -1,0  M-163.3 393 L-163.3 393 -156.3 387 -163.3 381 M -163.3 381 m -1, 0 a 1,1 0 1,0 2,0 a 1,1 0 1,0 -2,0 M -163.3 381 m -0.5, 0 a 0.5,0.5 0 1,0 1,0 a 0.5,0.5 0 1,0 -1,0  M-151.3 387 Q -126.19 387, -101.09 255.34 T -50.89 123.67 M -38.89 123.67 m -1, 0 a 1,1 0 1,0 2,0 a 1,1 0 1,0 -2,0 M -38.89 123.67 m -0.5, 0 a 0.5,0.5 0 1,0 1,0 a 0.5,0.5 0 1,0 -1,0  M-38.89 123.67 L-38.89 123.67 -50.89 123.67 M-44.89 129.67000000000002 L-44.89 129.67000000000002 -44.89 117.67" id="h3855508822" class="r"></path></g><g class="hrs"></g><g class="ts"><svg width="139.38" height="175" x="-304" y="-102" id="h3010508784" class="t"><rect height="40" width="139.38" class="th"></rect><text x="13" y="25" class="tht">Teams</text><rect height="135" width="139.38" class="t-bg"></rect><text x="13" y="61" class="tf pk">id<tspan x="126.38" class="ty">serial</tspan></text><path d="M7,14A2,2 0 0,1 5,12A2,2 0 0,1 7,10A2,2 0 0,1 9,12A2,2 0 0,1 7,14M12.65,10C11.83,7.67 9.61,6 7, 6A6, 6 0 0, 0 1, 12A6, 6 0 0, 0 7, 18C9.61, 18 11.83, 16.33 12.65, 14H17V18H21V14H23V10H12.65Z" class="i pk" transform="translate(77.70421875, 48) scale(0.65)"></path><text x="13" y="86" class="tf">name<tspan x="126.38" class="ty">varchar(50)</tspan></text><text x="13" y="111" class="tf">city<tspan x="126.38" class="ty">varchar(50)</tspan></text><text x="13" y="136" class="tf">founded<tspan x="126.38" class="ty">date</tspan></text><text x="13" y="161" class="tf">coach<tspan x="126.38" class="ty">varchar(50)</tspan></text></svg><svg width="148.71" height="250" x="203.89" y="-131.11" id="h4103274130" class="t"><rect height="40" width="148.71" class="th"></rect><text x="13" y="25" class="tht">Players</text><rect height="210" width="148.71" class="t-bg"></rect><text x="13" y="61" class="tf pk">id<tspan x="135.71" class="ty">serial</tspan></text><path d="M7,14A2,2 0 0,1 5,12A2,2 0 0,1 7,10A2,2 0 0,1 9,12A2,2 0 0,1 7,14M12.65,10C11.83,7.67 9.61,6 7, 6A6, 6 0 0, 0 1, 12A6, 6 0 0, 0 7, 18C9.61, 18 11.83, 16.33 12.65, 14H17V18H21V14H23V10H12.65Z" class="i pk" transform="translate(87.03421875000001, 48) scale(0.65)"></path><text x="13" y="86" class="tf">f_name<tspan x="135.71" class="ty">varchar(30)</tspan></text><text x="13" y="111" class="tf">l_name<tspan x="135.71" class="ty">varchar(30)</tspan></text><text x="13" y="136" class="tf">dob<tspan x="135.71" class="ty">date</tspan></text><text x="13" y="161" class="tf">height<tspan x="135.71" class="ty">int</tspan></text><text x="13" y="186" class="tf">weight<tspan x="135.71" class="ty">int</tspan></text><text x="13" y="211" class="tf">position<tspan x="135.71" class="ty">varchar(20)</tspan></text><text x="13" y="236" class="tf fk">team_id<tspan x="135.71" class="ty">int</tspan></text></svg><svg width="147.38" height="150" x="-305" y="99" id="h332749422" class="t"><rect height="40" width="147.38" class="th"></rect><text x="13" y="25" class="tht">Referees</text><rect height="110" width="147.38" class="t-bg"></rect><text x="13" y="61" class="tf pk">id<tspan x="134.38" class="ty">serial</tspan></text><path d="M7,14A2,2 0 0,1 5,12A2,2 0 0,1 7,10A2,2 0 0,1 9,12A2,2 0 0,1 7,14M12.65,10C11.83,7.67 9.61,6 7, 6A6, 6 0 0, 0 1, 12A6, 6 0 0, 0 7, 18C9.61, 18 11.83, 16.33 12.65, 14H17V18H21V14H23V10H12.65Z" class="i pk" transform="translate(85.70421875, 48) scale(0.65)"></path><text x="13" y="86" class="tf">f_name<tspan x="134.38" class="ty">varchar(30)</tspan></text><text x="13" y="111" class="tf">l_name<tspan x="134.38" class="ty">varchar(30)</tspan></text><text x="13" y="136" class="tf">dob<tspan x="134.38" class="ty">date</tspan></text></svg><svg width="122.72" height="125" x="222.67" y="317.67" id="h447324019" class="t"><rect height="40" width="122.72" class="th"></rect><text x="13" y="25" class="tht">Seasons</text><rect height="85" width="122.72" class="t-bg"></rect><text x="13" y="61" class="tf pk">year<tspan x="109.72" class="ty">int</tspan></text><path d="M7,14A2,2 0 0,1 5,12A2,2 0 0,1 7,10A2,2 0 0,1 9,12A2,2 0 0,1 7,14M12.65,10C11.83,7.67 9.61,6 7, 6A6, 6 0 0, 0 1, 12A6, 6 0 0, 0 7, 18C9.61, 18 11.83, 16.33 12.65, 14H17V18H21V14H23V10H12.65Z" class="i pk" transform="translate(77.046171875, 48) scale(0.65)"></path><text x="13" y="86" class="tf">start_date<tspan x="109.72" class="ty">date</tspan></text><text x="13" y="111" class="tf">end_date<tspan x="109.72" class="ty">date</tspan></text></svg><svg width="149.37" height="250" x="-38.89" y="66.67" id="h78672241" class="t"><rect height="40" width="149.37" class="th"></rect><text x="13" y="25" class="tht">Games</text><rect height="210" width="149.37" class="t-bg"></rect><text x="13" y="61" class="tf pk">id<tspan x="136.37" class="ty">int</tspan></text><path d="M7,14A2,2 0 0,1 5,12A2,2 0 0,1 7,10A2,2 0 0,1 9,12A2,2 0 0,1 7,14M12.65,10C11.83,7.67 9.61,6 7, 6A6, 6 0 0, 0 1, 12A6, 6 0 0, 0 7, 18C9.61, 18 11.83, 16.33 12.65, 14H17V18H21V14H23V10H12.65Z" class="i pk" transform="translate(103.696171875, 48) scale(0.65)"></path><text x="13" y="86" class="tf fk">team1<tspan x="136.37" class="ty">int</tspan></text><text x="13" y="111" class="tf fk">team2<tspan x="136.37" class="ty">int</tspan></text><text x="13" y="136" class="tf fk">referee_id<tspan x="136.37" class="ty">int</tspan></text><text x="13" y="161" class="tf">date<tspan x="136.37" class="ty">date</tspan></text><text x="13" y="186" class="tf">stadium<tspan x="136.37" class="ty">varchar(50)</tspan></text><text x="13" y="211" class="tf">info<tspan x="136.37" class="ty">text?</tspan></text><text x="13" y="236" class="tf fk">season<tspan x="136.37" class="ty">int</tspan></text></svg><svg width="107.37" height="150" x="223.56" y="146.67" id="h2207534861" class="t"><rect height="40" width="107.37" class="th"></rect><text x="13" y="25" class="tht">Goals</text><rect height="110" width="107.37" class="t-bg"></rect><text x="13" y="61" class="tf pk">id<tspan x="94.37" class="ty">serial</tspan></text><path d="M7,14A2,2 0 0,1 5,12A2,2 0 0,1 7,10A2,2 0 0,1 9,12A2,2 0 0,1 7,14M12.65,10C11.83,7.67 9.61,6 7, 6A6, 6 0 0, 0 1, 12A6, 6 0 0, 0 7, 18C9.61, 18 11.83, 16.33 12.65, 14H17V18H21V14H23V10H12.65Z" class="i pk" transform="translate(45.694218750000005, 48) scale(0.65)"></path><text x="13" y="86" class="tf fk">player_id<tspan x="94.37" class="ty">int</tspan></text><text x="13" y="111" class="tf fk">game_id<tspan x="94.37" class="ty">int</tspan></text><text x="13" y="136" class="tf">time_min<tspan x="94.37" class="ty">int</tspan></text></svg><svg width="136.7" height="175" x="-300" y="280" id="h1488401382" class="t"><rect height="40" width="136.7" class="th"></rect><text x="13" y="25" class="tht">Results</text><rect height="135" width="136.7" class="t-bg"></rect><text x="13" y="61" class="tf pk">id<tspan x="123.69999999999999" class="ty">serial</tspan></text><path d="M7,14A2,2 0 0,1 5,12A2,2 0 0,1 7,10A2,2 0 0,1 9,12A2,2 0 0,1 7,14M12.65,10C11.83,7.67 9.61,6 7, 6A6, 6 0 0, 0 1, 12A6, 6 0 0, 0 7, 18C9.61, 18 11.83, 16.33 12.65, 14H17V18H21V14H23V10H12.65Z" class="i pk" transform="translate(75.02421874999999, 48) scale(0.65)"></path><text x="13" y="86" class="tf fk">team_id<tspan x="123.69999999999999" class="ty">int</tspan></text><text x="13" y="111" class="tf fk">game_id<tspan x="123.69999999999999" class="ty">int</tspan></text><text x="13" y="136" class="tf">result<tspan x="123.69999999999999" class="ty">varchar(10)</tspan></text><text x="13" y="161" class="tf">point<tspan x="123.69999999999999" class="ty">int</tspan></text></svg></g></g><text class="qdbd-link" x="10" y="20">www.quickdatabasediagrams.com</text></svg>