<svg class="diagram-root" style="background: #f5f6f6" xmlns="http://www.w3.org/2000/svg" xmlns:xlink="http://www.w3.org/1999/xlink"><style>.diagram-root { font-family: "Helvetica Neue", sans-serif; font-size: 12px; } .t { overflow: visible; } .t-bg { y: 40; fill: #fff;   } .th { fill: #005aa0;   } .tht { fill: #fff; font-size: 14px;  } .tf { fill: #323c46; overflow: visible; } .tf.pk { fill: #005aa0; font-weight: bold; } .tf.fk { font-weight: bold; } .ty { fill: #adb1b5; font-weight: normal; text-anchor: end; } .r { fill: transparent; stroke: #c3c3c3; stroke-width: 1; } .l { stroke: 1; } .i { fill: #c2c7ce; stroke: #c2c7ce; } .i.ix { fill: #afb3b6; stroke: #000; } .fa { fill: transparent; overflow: visible; } .fa .bg.hover { fill: #f7f7f7; } .c { cy: 12; r: 4; stroke: #d2d2dc; fill: #d2d2dc; } .hr { fill: transparent; stroke: #323c46; stroke-opacity: 0.035; stroke-width: 13; } .dc { stroke: #fa5a3c; fill: #fa5a3c; } .x { stroke: white; stroke-width: 1; } .hl .th { fill: #1b9bff; } .hl .tht {  } .fhl .bg { fill: #e7f4ff; } .fhls .bg {  } .r.hl { stroke: #1b9bff; } .dim { opacity: 0.25; }</style><g class="drawing-wrapper" transform="translate(-17, 0) scale(1,1)"><g class="rs"><path d="M 186.38 212 m -1, 0 a 1,1 0 1,0 2,0 a 1,1 0 1,0 -2,0 M 186.38 212 m -0.5, 0 a 0.5,0.5 0 1,0 1,0 a 0.5,0.5 0 1,0 -1,0  M186.38 212 L186.38 212 198.38 212 M 186.38 218 m -1, 0 a 1,1 0 1,0 2,0 a 1,1 0 1,0 -2,0 M 186.38 218 m -0.5, 0 a 0.5,0.5 0 1,0 1,0 a 0.5,0.5 0 1,0 -1,0  M186.38 218 L186.38 218 193.38 212 186.38 206 M 186.38 206 m -1, 0 a 1,1 0 1,0 2,0 a 1,1 0 1,0 -2,0 M 186.38 206 m -0.5, 0 a 0.5,0.5 0 1,0 1,0 a 0.5,0.5 0 1,0 -1,0  M198.38 212 C 232.7393430605935 212, 235.14534306059352 315, 194.37 315 M 182.37 315 m -1, 0 a 1,1 0 1,0 2,0 a 1,1 0 1,0 -2,0 M 182.37 315 m -0.5, 0 a 0.5,0.5 0 1,0 1,0 a 0.5,0.5 0 1,0 -1,0  M182.37 315 L182.37 315 194.37 315 M188.37 321 L188.37 321 188.37 309" id="h1361603860" class="r"></path><path d="M 384.72 114 m -1, 0 a 1,1 0 1,0 2,0 a 1,1 0 1,0 -2,0 M 384.72 114 m -0.5, 0 a 0.5,0.5 0 1,0 1,0 a 0.5,0.5 0 1,0 -1,0  M384.72 114 L384.72 114 396.72 114 M 384.72 120 m -1, 0 a 1,1 0 1,0 2,0 a 1,1 0 1,0 -2,0 M 384.72 120 m -0.5, 0 a 0.5,0.5 0 1,0 1,0 a 0.5,0.5 0 1,0 -1,0  M384.72 120 L384.72 120 391.72 114 384.72 108 M 384.72 108 m -1, 0 a 1,1 0 1,0 2,0 a 1,1 0 1,0 -2,0 M 384.72 108 m -0.5, 0 a 0.5,0.5 0 1,0 1,0 a 0.5,0.5 0 1,0 -1,0  M396.72 114 Q 412.04 114, 427.36 101 T 458 88 M 470 88 m -1, 0 a 1,1 0 1,0 2,0 a 1,1 0 1,0 -2,0 M 470 88 m -0.5, 0 a 0.5,0.5 0 1,0 1,0 a 0.5,0.5 0 1,0 -1,0  M470 88 L470 88 458 88 M464 94 L464 94 464 82" id="h3883713910" class="r"></path><path d="M 274 139 m -1, 0 a 1,1 0 1,0 2,0 a 1,1 0 1,0 -2,0 M 274 139 m -0.5, 0 a 0.5,0.5 0 1,0 1,0 a 0.5,0.5 0 1,0 -1,0  M274 139 L274 139 262 139 M 274 145 m -1, 0 a 1,1 0 1,0 2,0 a 1,1 0 1,0 -2,0 M 274 145 m -0.5, 0 a 0.5,0.5 0 1,0 1,0 a 0.5,0.5 0 1,0 -1,0  M274 145 L274 145 267 139 274 133 M 274 133 m -1, 0 a 1,1 0 1,0 2,0 a 1,1 0 1,0 -2,0 M 274 133 m -0.5, 0 a 0.5,0.5 0 1,0 1,0 a 0.5,0.5 0 1,0 -1,0  M262 139 Q 246.1 139, 230.19 113 T 198.38 87 M 186.38 87 m -1, 0 a 1,1 0 1,0 2,0 a 1,1 0 1,0 -2,0 M 186.38 87 m -0.5, 0 a 0.5,0.5 0 1,0 1,0 a 0.5,0.5 0 1,0 -1,0  M186.38 87 L186.38 87 198.38 87 M192.38 93 L192.38 93 192.38 81" id="h590229396" class="r"></path><path d="M 256 327 m -1, 0 a 1,1 0 1,0 2,0 a 1,1 0 1,0 -2,0 M 256 327 m -0.5, 0 a 0.5,0.5 0 1,0 1,0 a 0.5,0.5 0 1,0 -1,0  M256 327 L256 327 244 327 M 256 333 m -1, 0 a 1,1 0 1,0 2,0 a 1,1 0 1,0 -2,0 M 256 333 m -0.5, 0 a 0.5,0.5 0 1,0 1,0 a 0.5,0.5 0 1,0 -1,0  M256 333 L256 333 249 327 256 321 M 256 321 m -1, 0 a 1,1 0 1,0 2,0 a 1,1 0 1,0 -2,0 M 256 321 m -0.5, 0 a 0.5,0.5 0 1,0 1,0 a 0.5,0.5 0 1,0 -1,0  M244 327 C 194 327, 183.2 89, 262 89 M 274 89 m -1, 0 a 1,1 0 1,0 2,0 a 1,1 0 1,0 -2,0 M 274 89 m -0.5, 0 a 0.5,0.5 0 1,0 1,0 a 0.5,0.5 0 1,0 -1,0  M274 89 L274 89 262 89 M268 95 L268 95 268 83" id="h746925263" class="r"></path><path d="M 256 352 m -1, 0 a 1,1 0 1,0 2,0 a 1,1 0 1,0 -2,0 M 256 352 m -0.5, 0 a 0.5,0.5 0 1,0 1,0 a 0.5,0.5 0 1,0 -1,0  M256 352 L256 352 244 352 M 256 358 m -1, 0 a 1,1 0 1,0 2,0 a 1,1 0 1,0 -2,0 M 256 358 m -0.5, 0 a 0.5,0.5 0 1,0 1,0 a 0.5,0.5 0 1,0 -1,0  M256 358 L256 358 249 352 256 346 M 256 346 m -1, 0 a 1,1 0 1,0 2,0 a 1,1 0 1,0 -2,0 M 256 346 m -0.5, 0 a 0.5,0.5 0 1,0 1,0 a 0.5,0.5 0 1,0 -1,0  M244 352 C 205.7900536509144 352, 198.5900536509144 466, 256 466 M 268 466 m -1, 0 a 1,1 0 1,0 2,0 a 1,1 0 1,0 -2,0 M 268 466 m -0.5, 0 a 0.5,0.5 0 1,0 1,0 a 0.5,0.5 0 1,0 -1,0  M268 466 L268 466 256 466 M262 472 L262 472 262 460" id="h3020454270" class="r"></path></g><g class="hrs"></g><g class="ts"><svg width="137.37" height="150" x="45" y="258" id="h776457530" class="t"><rect height="40" width="137.37" class="th"></rect><text x="13" y="25" class="tht">Deparments</text><rect height="110" width="137.37" class="t-bg"></rect><text x="13" y="61" class="tf pk">id<tspan x="124.37" class="ty">serial</tspan></text><path d="M7,14A2,2 0 0,1 5,12A2,2 0 0,1 7,10A2,2 0 0,1 9,12A2,2 0 0,1 7,14M12.65,10C11.83,7.67 9.61,6 7, 6A6, 6 0 0, 0 1, 12A6, 6 0 0, 0 7, 18C9.61, 18 11.83, 16.33 12.65, 14H17V18H21V14H23V10H12.65Z" class="i pk" transform="translate(75.69421875, 48) scale(0.65)"></path><text x="13" y="86" class="tf">name<tspan x="124.37" class="ty">varchar(50)</tspan></text><text x="13" y="111" class="tf">phone<tspan x="124.37" class="ty">int</tspan></text><text x="13" y="136" class="tf">address<tspan x="124.37" class="ty">text</tspan></text></svg><svg width="147.38" height="200" x="39" y="30" id="h16875077" class="t"><rect height="40" width="147.38" class="th"></rect><text x="13" y="25" class="tht">Doctors</text><rect height="160" width="147.38" class="t-bg"></rect><text x="13" y="61" class="tf pk">id<tspan x="134.38" class="ty">serial</tspan></text><path d="M7,14A2,2 0 0,1 5,12A2,2 0 0,1 7,10A2,2 0 0,1 9,12A2,2 0 0,1 7,14M12.65,10C11.83,7.67 9.61,6 7, 6A6, 6 0 0, 0 1, 12A6, 6 0 0, 0 7, 18C9.61, 18 11.83, 16.33 12.65, 14H17V18H21V14H23V10H12.65Z" class="i pk" transform="translate(85.70421875, 48) scale(0.65)"></path><text x="13" y="86" class="tf">f_name<tspan x="134.38" class="ty">varchar(30)</tspan></text><text x="13" y="111" class="tf">l_name<tspan x="134.38" class="ty">varchar(30)</tspan></text><text x="13" y="136" class="tf">role<tspan x="134.38" class="ty">varchar(50)</tspan></text><text x="13" y="161" class="tf">email<tspan x="134.38" class="ty">varchar(50)</tspan></text><text x="13" y="186" class="tf fk">department_id<tspan x="134.38" class="ty">int</tspan></text></svg><svg width="110.72" height="200" x="274" y="32" id="h3280351983" class="t"><rect height="40" width="110.72" class="th"></rect><text x="13" y="25" class="tht">Visits</text><rect height="160" width="110.72" class="t-bg"></rect><text x="13" y="61" class="tf pk">id<tspan x="97.72" class="ty">serial</tspan></text><path d="M7,14A2,2 0 0,1 5,12A2,2 0 0,1 7,10A2,2 0 0,1 9,12A2,2 0 0,1 7,14M12.65,10C11.83,7.67 9.61,6 7, 6A6, 6 0 0, 0 1, 12A6, 6 0 0, 0 7, 18C9.61, 18 11.83, 16.33 12.65, 14H17V18H21V14H23V10H12.65Z" class="i pk" transform="translate(49.04421875, 48) scale(0.65)"></path><text x="13" y="86" class="tf fk">patient_id<tspan x="97.72" class="ty">int</tspan></text><text x="13" y="111" class="tf fk">doctor_id<tspan x="97.72" class="ty">int</tspan></text><text x="13" y="136" class="tf">date<tspan x="97.72" class="ty">date</tspan></text><text x="13" y="161" class="tf">time<tspan x="97.72" class="ty">time</tspan></text><text x="13" y="186" class="tf">result<tspan x="97.72" class="ty">text</tspan></text></svg><svg width="137.37" height="175" x="268" y="409" id="h1794948770" class="t"><rect height="40" width="137.37" class="th"></rect><text x="13" y="25" class="tht">Diseases</text><rect height="135" width="137.37" class="t-bg"></rect><text x="13" y="61" class="tf pk">id<tspan x="124.37" class="ty">serial</tspan></text><path d="M7,14A2,2 0 0,1 5,12A2,2 0 0,1 7,10A2,2 0 0,1 9,12A2,2 0 0,1 7,14M12.65,10C11.83,7.67 9.61,6 7, 6A6, 6 0 0, 0 1, 12A6, 6 0 0, 0 7, 18C9.61, 18 11.83, 16.33 12.65, 14H17V18H21V14H23V10H12.65Z" class="i pk" transform="translate(75.69421875, 48) scale(0.65)"></path><text x="13" y="86" class="tf">name<tspan x="124.37" class="ty">varchar(50)</tspan></text><text x="13" y="111" class="tf">description<tspan x="124.37" class="ty">text</tspan></text><text x="13" y="136" class="tf">symptoms<tspan x="124.37" class="ty">text</tspan></text><text x="13" y="161" class="tf">treatment<tspan x="124.37" class="ty">text</tspan></text></svg><svg width="168.74" height="150" x="256" y="245" id="h3047656030" class="t"><rect height="40" width="168.74" class="th"></rect><text x="13" y="25" class="tht">Diagnoses</text><rect height="110" width="168.74" class="t-bg"></rect><text x="13" y="61" class="tf pk">id<tspan x="155.74" class="ty">serial</tspan></text><path d="M7,14A2,2 0 0,1 5,12A2,2 0 0,1 7,10A2,2 0 0,1 9,12A2,2 0 0,1 7,14M12.65,10C11.83,7.67 9.61,6 7, 6A6, 6 0 0, 0 1, 12A6, 6 0 0, 0 7, 18C9.61, 18 11.83, 16.33 12.65, 14H17V18H21V14H23V10H12.65Z" class="i pk" transform="translate(107.06421875000001, 48) scale(0.65)"></path><text x="13" y="86" class="tf fk">visit_id<tspan x="155.74" class="ty">int</tspan></text><text x="13" y="111" class="tf fk">disease_id<tspan x="155.74" class="ty">int</tspan></text><text x="13" y="136" class="tf">condition<tspan x="155.74" class="ty">varchar(50)?</tspan></text></svg><svg width="159.38" height="275" x="470" y="31" id="h3676580549" class="t"><rect height="40" width="159.38" class="th"></rect><text x="13" y="25" class="tht">Patients</text><rect height="235" width="159.38" class="t-bg"></rect><text x="13" y="61" class="tf pk">id<tspan x="146.38" class="ty">serial</tspan></text><path d="M7,14A2,2 0 0,1 5,12A2,2 0 0,1 7,10A2,2 0 0,1 9,12A2,2 0 0,1 7,14M12.65,10C11.83,7.67 9.61,6 7, 6A6, 6 0 0, 0 1, 12A6, 6 0 0, 0 7, 18C9.61, 18 11.83, 16.33 12.65, 14H17V18H21V14H23V10H12.65Z" class="i pk" transform="translate(97.70421875, 48) scale(0.65)"></path><text x="13" y="86" class="tf">f_name<tspan x="146.38" class="ty">varchar(30)</tspan></text><text x="13" y="111" class="tf">l_name<tspan x="146.38" class="ty">varchar(30)</tspan></text><text x="13" y="136" class="tf">dob<tspan x="146.38" class="ty">date</tspan></text><text x="13" y="161" class="tf">insurance<tspan x="146.38" class="ty">varchar(50)</tspan></text><text x="13" y="186" class="tf">phone<tspan x="146.38" class="ty">int</tspan></text><text x="13" y="211" class="tf">gender<tspan x="146.38" class="ty">varchar(10)?</tspan></text><text x="13" y="236" class="tf">email<tspan x="146.38" class="ty">varchar(50)?</tspan></text><text x="13" y="261" class="tf">address<tspan x="146.38" class="ty">text?</tspan></text></svg></g></g><text class="qdbd-link" x="10" y="20">www.quickdatabasediagrams.com</text></svg>