<svg class="diagram-root" style="background: #f5f6f6" xmlns="http://www.w3.org/2000/svg" xmlns:xlink="http://www.w3.org/1999/xlink"><style>.diagram-root { font-family: "Helvetica Neue", sans-serif; font-size: 12px; } .t { overflow: visible; } .t-bg { y: 40; fill: #fff;   } .th { fill: #005aa0;   } .tht { fill: #fff; font-size: 14px;  } .tf { fill: #323c46; overflow: visible; } .tf.pk { fill: #005aa0; font-weight: bold; } .tf.fk { font-weight: bold; } .ty { fill: #adb1b5; font-weight: normal; text-anchor: end; } .r { fill: transparent; stroke: #c3c3c3; stroke-width: 1; } .l { stroke: 1; } .i { fill: #c2c7ce; stroke: #c2c7ce; } .i.ix { fill: #afb3b6; stroke: #000; } .fa { fill: transparent; overflow: visible; } .fa .bg.hover { fill: #f7f7f7; } .c { cy: 12; r: 4; stroke: #d2d2dc; fill: #d2d2dc; } .hr { fill: transparent; stroke: #323c46; stroke-opacity: 0.035; stroke-width: 13; } .dc { stroke: #fa5a3c; fill: #fa5a3c; } .x { stroke: white; stroke-width: 1; } .hl .th { fill: #1b9bff; } .hl .tht {  } .fhl .bg { fill: #e7f4ff; } .fhls .bg {  } .r.hl { stroke: #1b9bff; } .dim { opacity: 0.25; }</style><g class="drawing-wrapper" transform="translate(2, 18) scale(1,1)"><g class="rs"><path d="M 299 251 m -1, 0 a 1,1 0 1,0 2,0 a 1,1 0 1,0 -2,0 M 299 251 m -0.5, 0 a 0.5,0.5 0 1,0 1,0 a 0.5,0.5 0 1,0 -1,0  M299 251 L299 251 287 251 M 299 257 m -1, 0 a 1,1 0 1,0 2,0 a 1,1 0 1,0 -2,0 M 299 257 m -0.5, 0 a 0.5,0.5 0 1,0 1,0 a 0.5,0.5 0 1,0 -1,0  M299 257 L299 257 292 251 299 245 M 299 245 m -1, 0 a 1,1 0 1,0 2,0 a 1,1 0 1,0 -2,0 M 299 245 m -0.5, 0 a 0.5,0.5 0 1,0 1,0 a 0.5,0.5 0 1,0 -1,0  M287 251 C 237 251, 236.4 87, 288 87 M 300 87 m -1, 0 a 1,1 0 1,0 2,0 a 1,1 0 1,0 -2,0 M 300 87 m -0.5, 0 a 0.5,0.5 0 1,0 1,0 a 0.5,0.5 0 1,0 -1,0  M300 87 L300 87 288 87 M294 93 L294 93 294 81" id="h3389885299" class="r"></path><path d="M 299 326 m -1, 0 a 1,1 0 1,0 2,0 a 1,1 0 1,0 -2,0 M 299 326 m -0.5, 0 a 0.5,0.5 0 1,0 1,0 a 0.5,0.5 0 1,0 -1,0  M299 326 L299 326 287 326 M 299 332 m -1, 0 a 1,1 0 1,0 2,0 a 1,1 0 1,0 -2,0 M 299 332 m -0.5, 0 a 0.5,0.5 0 1,0 1,0 a 0.5,0.5 0 1,0 -1,0  M299 332 L299 332 292 326 299 320 M 299 320 m -1, 0 a 1,1 0 1,0 2,0 a 1,1 0 1,0 -2,0 M 299 320 m -0.5, 0 a 0.5,0.5 0 1,0 1,0 a 0.5,0.5 0 1,0 -1,0  M287 326 Q 268.43 326, 249.86 299.5 T 212.71 273 M 200.71 273 m -1, 0 a 1,1 0 1,0 2,0 a 1,1 0 1,0 -2,0 M 200.71 273 m -0.5, 0 a 0.5,0.5 0 1,0 1,0 a 0.5,0.5 0 1,0 -1,0  M200.71 273 L200.71 273 212.71 273 M206.71 279 L206.71 279 206.71 267" id="h1027365967" class="r"></path><path d="M 299 426 m -1, 0 a 1,1 0 1,0 2,0 a 1,1 0 1,0 -2,0 M 299 426 m -0.5, 0 a 0.5,0.5 0 1,0 1,0 a 0.5,0.5 0 1,0 -1,0  M299 426 L299 426 287 426 M 299 432 m -1, 0 a 1,1 0 1,0 2,0 a 1,1 0 1,0 -2,0 M 299 432 m -0.5, 0 a 0.5,0.5 0 1,0 1,0 a 0.5,0.5 0 1,0 -1,0  M299 432 L299 432 292 426 299 420 M 299 420 m -1, 0 a 1,1 0 1,0 2,0 a 1,1 0 1,0 -2,0 M 299 420 m -0.5, 0 a 0.5,0.5 0 1,0 1,0 a 0.5,0.5 0 1,0 -1,0  M287 426 Q 264.76 426, 242.52 256.5 T 198.04 87 M 186.04 87 m -1, 0 a 1,1 0 1,0 2,0 a 1,1 0 1,0 -2,0 M 186.04 87 m -0.5, 0 a 0.5,0.5 0 1,0 1,0 a 0.5,0.5 0 1,0 -1,0  M186.04 87 L186.04 87 198.04 87 M192.04 93 L192.04 93 192.04 81" id="h884732920" class="r"></path></g><g class="hrs"></g><g class="ts"><svg width="156.04" height="125" x="30" y="30" id="h41485699" class="t"><rect height="40" width="156.04" class="th"></rect><text x="13" y="25" class="tht">Regions</text><rect height="85" width="156.04" class="t-bg"></rect><text x="13" y="61" class="tf pk">id<tspan x="143.04" class="ty">serial</tspan></text><path d="M7,14A2,2 0 0,1 5,12A2,2 0 0,1 7,10A2,2 0 0,1 9,12A2,2 0 0,1 7,14M12.65,10C11.83,7.67 9.61,6 7, 6A6, 6 0 0, 0 1, 12A6, 6 0 0, 0 7, 18C9.61, 18 11.83, 16.33 12.65, 14H17V18H21V14H23V10H12.65Z" class="i pk" transform="translate(94.36421874999999, 48) scale(0.65)"></path><text x="13" y="86" class="tf">name<tspan x="143.04" class="ty">varchar(50)</tspan></text><text x="13" y="111" class="tf">timezone<tspan x="143.04" class="ty">varchar(10)</tspan></text></svg><svg width="137.37" height="125" x="300" y="30" id="h1234641711" class="t"><rect height="40" width="137.37" class="th"></rect><text x="13" y="25" class="tht">Categories</text><rect height="85" width="137.37" class="t-bg"></rect><text x="13" y="61" class="tf pk">id<tspan x="124.37" class="ty">serial</tspan></text><path d="M7,14A2,2 0 0,1 5,12A2,2 0 0,1 7,10A2,2 0 0,1 9,12A2,2 0 0,1 7,14M12.65,10C11.83,7.67 9.61,6 7, 6A6, 6 0 0, 0 1, 12A6, 6 0 0, 0 7, 18C9.61, 18 11.83, 16.33 12.65, 14H17V18H21V14H23V10H12.65Z" class="i pk" transform="translate(75.69421875, 48) scale(0.65)"></path><text x="13" y="86" class="tf">name<tspan x="124.37" class="ty">varchar(50)</tspan></text><text x="13" y="111" class="tf">description<tspan x="124.37" class="ty">text?</tspan></text></svg><svg width="176.71" height="175" x="24" y="191" id="h3889921393" class="t"><rect height="40" width="176.71" class="th"></rect><text x="13" y="25" class="tht">Users</text><rect height="135" width="176.71" class="t-bg"></rect><text x="13" y="61" class="tf pk">id<tspan x="163.71" class="ty">serial</tspan></text><path d="M7,14A2,2 0 0,1 5,12A2,2 0 0,1 7,10A2,2 0 0,1 9,12A2,2 0 0,1 7,14M12.65,10C11.83,7.67 9.61,6 7, 6A6, 6 0 0, 0 1, 12A6, 6 0 0, 0 7, 18C9.61, 18 11.83, 16.33 12.65, 14H17V18H21V14H23V10H12.65Z" class="i pk" transform="translate(115.03421875000001, 48) scale(0.65)"></path><text x="13" y="86" class="tf fk">username<tspan x="163.71" class="ty">varhcar(50)</tspan></text><path d="M22,18V22H18V19H15V16H12L9.74,13.74C9.19,13.91 8.61,14 8,14A6,6 0 0,1 2,8A6,6 0 0,1 8,2A6,6 0 0,1 14,8C14,8.61 13.91, 9.19 13.74, 9.74L22, 18M7, 5A2, 2 0 0, 0 5, 7A2, 2 0 0, 0 7, 9A2, 2 0 0, 0 9, 7A2, 2 0 0, 0 7, 5Z" class="i uq" transform="translate(86.35648437500001, 75.5) scale(0.5)"></path><text x="13" y="111" class="tf">password<tspan x="163.71" class="ty">varchar(50)</tspan></text><text x="13" y="136" class="tf">email<tspan x="163.71" class="ty">varhcar(50)</tspan></text><text x="13" y="161" class="tf">date_created<tspan x="163.71" class="ty">date</tspan></text></svg><svg width="154.05" height="250" x="299" y="194" id="h1611266215" class="t"><rect height="40" width="154.05" class="th"></rect><text x="13" y="25" class="tht">Posts</text><rect height="210" width="154.05" class="t-bg"></rect><text x="13" y="61" class="tf pk">id<tspan x="141.05" class="ty">serial</tspan></text><path d="M7,14A2,2 0 0,1 5,12A2,2 0 0,1 7,10A2,2 0 0,1 9,12A2,2 0 0,1 7,14M12.65,10C11.83,7.67 9.61,6 7, 6A6, 6 0 0, 0 1, 12A6, 6 0 0, 0 7, 18C9.61, 18 11.83, 16.33 12.65, 14H17V18H21V14H23V10H12.65Z" class="i pk" transform="translate(92.37421875000001, 48) scale(0.65)"></path><text x="13" y="86" class="tf">title<tspan x="141.05" class="ty">varchar(50)</tspan></text><text x="13" y="111" class="tf">text<tspan x="141.05" class="ty">text</tspan></text><text x="13" y="136" class="tf fk">username<tspan x="141.05" class="ty">text</tspan></text><text x="13" y="161" class="tf">date_time<tspan x="141.05" class="ty">timestamp</tspan></text><text x="13" y="186" class="tf">location<tspan x="141.05" class="ty">varchar(50)</tspan></text><text x="13" y="211" class="tf">category_id<tspan x="141.05" class="ty">int</tspan></text><text x="13" y="236" class="tf fk">location_id<tspan x="141.05" class="ty">int</tspan></text></svg></g></g><text class="qdbd-link" x="10" y="20">www.quickdatabasediagrams.com</text></svg>